<?xml version="1.0" encoding="UTF-8"?><svg width="512" height="512" version="1.1" viewBox="0 0 512 512" xmlns="http://www.w3.org/2000/svg" xmlns:xlink="http://www.w3.org/1999/xlink"><!--Generated by IJSVG (https://github.com/iconjar/IJSVG)--><g transform="scale(8)"><path fill="#000" d="M52,22c-1.104,0 -2,0.896 -2,2v26h-36v-26c0,-1.104 -0.896,-2 -2,-2c-1.104,0 -2,0.896 -2,2v28c0,1.104 0.896,2 2,2h40c1.104,0 2,-0.896 2,-2v-28c0,-1.104 -0.896,-2 -2,-2Z"></path><path fill="#000" d="M25.414,21.414l4.586,-4.585v21.171c0,1.104 0.896,2 2,2c1.104,0 2,-0.896 2,-2v-21.171l4.586,4.585c0.391,0.391 0.902,0.586 1.414,0.586c0.512,0 1.023,-0.195 1.414,-0.586c0.781,-0.781 0.781,-2.047 0,-2.828l-8,-8c-0.781,-0.781 -2.048,-0.781 -2.828,0l-8,8c-0.781,0.781 -0.781,2.047 0,2.828c0.78,0.781 2.048,0.781 2.828,0Z"></path></g></svg>