<?xml version="1.0" encoding="UTF-8"?>
<svg id="Layer_2" data-name="Layer 2" xmlns="http://www.w3.org/2000/svg" viewBox="0 0 508.59 508.59">
  <defs>
    <style>
      .cls-1 {
        fill: #1f4b59;
        stroke: #ff6a4d;
        stroke-miterlimit: 10;
        stroke-width: 15px;
      }

      .cls-2 {
        fill: #e2c675;
      }

      .cls-3 {
        fill: #966e27;
      }

      .cls-4 {
        fill: #c3922e;
      }

      .cls-5 {
        fill: #cda349;
      }
    </style>
  </defs>
  <g id="Leon">
    <circle class="cls-1" cx="254.29" cy="254.29" r="246.79"/>
    <g>
      <path class="cls-5" d="M271.83,324.03c6.59-26.02,18.45-50.69-8.34-65.38,5.56-2.64,24.4.96,27.04,8.27-2.77-22.7-18.67-20.99-24.44-43.56,4.64,3.53,10.24,5.79,16.03,6.47-6.66-11.48-13.32-22.95-19.98-34.43,0,0,10.15-106.91-61.77-46.22-6.91,5.83,9.31-25.79,24.67-23.72-29.98-20.42-52.91,35.05-51.05-18.69,0,0-29.81,30.54-27.38,43.05-12.87-26.05,1.72-59.91-21.55,1.57-1.54-3.61-3.13-13.85-4.9-17.59,0,0-15.33,38.53-7.28,50.85,13.54-9.23,33.95-24.66,41.2-25.19,10.08-.74,22.65,3.62,3.76,19.19,10.85,7.2,24.43,15.01,27.15,28.81,0,0-14.85-13.07-15.76-7.71-.91,5.36,19.19,13.98,9.92,33.32-9.27,19.33-21.19-4.02-21.62,2.03-.44,6.06,12.66,17.55,12.66,17.55,0,0-16.27,1.75-18.99-.48,12.68,9.76,23.65,28.63,14.48,44.89-4.87,10.61-5.32,45.07,13.32,30.71,1.28,21.39-40.38,17.13-10.53,31.64,33.63-28.27,101.83-47.12,55.35-85.29,34.34-1.51,44.99,63.31,44.99,63.31.6-4.64,1.86-8.82,3.02-13.4Z"/>
      <path class="cls-4" d="M317.67,295.84c23.59,31.99,34.09,59.19,33.09,91.14-.37,11.63-2.25,23.89-5.59,37.24-3.12-26.99-21.73-51.64-46.83-62.03-10.68,18.86-3.86,44.71,14.74,55.84-13,10.92-33.66,9.92-45.55-2.2,3.56,7.27,7.13,14.55,10.69,21.83-26.16-3-48.59-24.2-53.06-50.15-10.8,16.51-15,37.23-11.47,56.64-15.14-16.46-24.42-38.2-25.86-60.52-10.28,6.72-16.58,19.07-15.99,31.33-5.04-7.7-8.49-16.53-9.42-25.71-4.66,1.95-7.76,6.93-7.52,11.96-28.9-58.45,134.37-73.32,68.61-127.32,34.34-1.51,45.3,63.56,45.3,63.56,4-30.94,25.88-61.75-5.63-79.03,5.56-2.64,24.4.96,27.04,8.27-2.77-22.7-18.67-20.99-24.44-43.56,4.64,3.53,10.24,5.79,16.03,6.47-6.66-11.48-13.32-22.95-19.98-34.43,0,0,10.45-106.66-61.46-45.97-6.91,5.83,9.31-25.79,24.67-23.72-30.19-20.38-53.6,35.13-51.05-18.69,0,0-29.81,30.54-27.38,43.05-2.62-4.01-4.91-8.85-4.49-13.39,9.37-27.13,32.73-38.01,56.98-40.7h0c25.19-2.8,53.19.04,73.16-7.23-9.38,12.27-22.68,21.5-37.44,26.01,23.81.38,44.58-12.02,57.86-30.93,4.1-5.83,7.47-12.27,10.02-19.15-1.04,7.62-2.22,14.66-3.67,21.26-5.33,24.28-14.31,42.72-33.51,63.61,28.29,2.28,41.04-6.97,66.24-20.03-1.75,20.64-9.31,38.02-25.57,56.87,11.16-12.93,40.6.06,51.85,27.97-23.06-7.17-25.13,1.5-40.38,17.02,12.21-12.43,57.41-1.94,57.41,81.37-31.25-37.15-47.78-29.69-57.41-16.67Z"/>
      <path class="cls-3" d="M436.22,416.29c-22.46-21.49-54.65-33.29-85.46-29.31,1.01-31.95-9.5-59.14-33.09-91.14,9.63-13.01,26.16-20.48,57.41,16.67,0-83.31-45.2-93.8-57.41-81.37,15.25-15.52,17.32-24.2,40.38-17.02-11.25-27.9-40.69-40.9-51.85-27.97,16.27-18.84,23.83-36.23,25.57-56.87-25.2,13.06-37.95,22.31-66.24,20.03,19.2-20.89,28.18-39.34,33.51-63.61,25.01,9.22,43.45,26.35,81.58,28.41-7,18.39-22.28,33.45-40.76,40.19,72.44,10.7,62.41,72.52,93.25,116.28-27.7-7.09-30.16,5.15-29.1,5.02,41.38,17.88,24.54,100.93,32.21,140.7ZM234.84,114.52c23.81.38,44.58-12.02,57.86-30.93-21.06-6.22-47.75-6.13-93.58,12.15,25.19-2.8,53.19.04,73.16-7.23-9.38,12.27-22.68,21.5-37.44,26.01Z"/>
      <path class="cls-2" d="M212.13,159.12s11.7-16.94,32.55-13.37c-12.3,5.72-12.49,24.04,6.39,16.86-14.61,9.03.63,15.2,0,26.16.87,4.94-39.52-22.67-38.94-29.65Z"/>
      <path class="cls-2" d="M169.24,199.77c.89-5.36,15.76,7.69,15.76,7.69-.09-.43-.17-.86-.29-1.27-.06-.32-.17-.63-.26-.95-.06-.17-.09-.35-.14-.52-.09-.29-.2-.58-.32-.89-.09-.23-.17-.46-.26-.69-.23-.58-.49-1.15-.75-1.73-.06-.14-.14-.26-.2-.4-.29-.61-.63-1.21-.98-1.79-.75-1.27-1.58-2.45-2.51-3.57-.23-.29-.46-.58-.72-.86-.23-.29-.46-.55-.72-.81-.49-.55-1.01-1.1-1.53-1.61-.6-.61-1.21-1.21-1.87-1.79-.63-.58-1.3-1.12-1.96-1.67-1.33-1.09-2.68-2.13-4.09-3.14-3.52-2.54-7.18-4.84-10.55-7.09,7.87-6.4,10.29-10.92,9.71-13.98-.09-.49-.26-.95-.52-1.38-.06-.14-.14-.29-.26-.4-.12-.2-.29-.37-.46-.55-.14-.17-.32-.32-.49-.46-.23-.2-.49-.37-.75-.55-.2-.12-.46-.26-.69-.37-.63-.32-1.3-.58-2.05-.81-.6-.17-1.24-.32-1.93-.43-.66-.12-1.35-.2-2.05-.26-.72-.06-1.41-.09-2.13-.09h-.03c-.61,0-1.24.03-1.84.09-.2,0-.37,0-.58.03-.17,0-.37.03-.58.09-.2.03-.43.09-.63.14-.78.17-1.73.49-2.79.98-.66.32-1.38.63-2.16,1.01-8.9,4.27-23.66,14.32-34.78,22.88-7.15,5.48-12.76,10.32-14.38,12.62,0,0-4.18,7.03-10.2,12.54-4.55,4.15-12.59,10.23-15.91,17.35,1.15-2.13,4.41-1.79,4.41-1.79,0,0,3.46.32,5.42,3.17,1.5,2.13-7.38,14.26-7.38,14.26-2.59,9.02,1.64,15.24,7.06,19.6,2.19,7.98,8.3,14.67,13.63,18.59-.69-7.38-1.12-14.61.29-21.79,49.73-2.62,52.04,37.26,38.09,76.51-14.55.72-18.5-5.01-18.7-5.36,3.52,13.2,16.45,19.11,16.45,19.11-.69,13.6,6.71,19.68,37.34,10.14-.14-.06-.29-.14-.43-.2-8.47-4.12-11.18-6.71-10.83-8.79.03-.14.06-.26.11-.37.06-.14.12-.26.17-.37s.14-.23.23-.35c.09-.14.2-.26.35-.4.14-.17.29-.32.49-.46.12-.12.23-.2.37-.32.2-.14.43-.32.69-.46.26-.2.55-.37.86-.55.2-.14.43-.29.69-.4.03-.03.06-.03.09-.06.26-.14.55-.29.84-.46.29-.14.6-.32.92-.49.61-.29,1.21-.61,1.84-.92.63-.35,1.3-.69,1.96-1.04.55-.32,1.12-.63,1.67-.92.43-.26.89-.55,1.33-.84.46-.29.95-.61,1.41-.95.58-.4,1.12-.84,1.67-1.27.32-.29.63-.55.92-.84.4-.4.78-.81,1.15-1.21.26-.29.52-.58.75-.89.17-.23.35-.46.49-.69.17-.23.32-.46.46-.72.14-.26.32-.52.43-.81.2-.35.35-.69.49-1.07.14-.32.23-.63.35-.98.11-.37.2-.78.29-1.18.06-.17.09-.37.12-.58.03-.23.06-.46.09-.72.03-.23.06-.46.06-.69.03-.58.03-1.18,0-1.79-18.64,14.35-18.18-20.11-13.31-30.72,9.16-16.25-1.81-35.13-14.49-44.9,2.74,2.25,18.99.49,18.99.49,0,0-13.08-11.5-12.65-17.55.43-6.05,12.33,17.29,21.61-2.02,9.28-19.34-10.81-27.95-9.91-33.31ZM135.73,191.41c-2.48,1.61-5.65,1.56-8.41,2.48,5.99,12.65-5.39,23.8-17.32,17.78-.35.37-.72.75-1.12,1.1-1.09.95-2.71-.63-1.61-1.61,2.42-2.1,3.86-4.93,5.45-7.64,1.5-2.54,3.23-4.87,5.42-6.83,2.19-1.93,4.7-3.49,7.43-4.55,1.35-.55,2.77-.98,4.18-1.24,1.7-.32,3.37-.46,4.84-1.44,1.24-.81,2.36,1.15,1.15,1.96Z"/>
    </g>
  </g>
</svg>